<svg width="1920" height="583" viewBox="0 0 1920 583" fill="none" xmlns="http://www.w3.org/2000/svg">
<path d="M-38.928 141.728C-46.896 141.728 -54.624 140.672 -62.112 138.56C-69.504 136.352 -75.456 133.52 -79.968 130.064L-72.048 112.496C-67.728 115.664 -62.592 118.208 -56.64 120.128C-50.688 122.048 -44.736 123.008 -38.784 123.008C-32.16 123.008 -27.264 122.048 -24.096 120.128C-20.928 118.112 -19.344 115.472 -19.344 112.208C-19.344 109.808 -20.304 107.84 -22.224 106.304C-24.048 104.672 -26.448 103.376 -29.424 102.416C-32.304 101.456 -36.24 100.4 -41.232 99.248C-48.912 97.424 -55.2 95.6 -60.096 93.776C-64.992 91.952 -69.216 89.024 -72.768 84.992C-76.224 80.96 -77.952 75.584 -77.952 68.864C-77.952 63.008 -76.368 57.728 -73.2 53.024C-70.032 48.224 -65.28 44.432 -58.944 41.648C-52.512 38.864 -44.688 37.472 -35.472 37.472C-29.04 37.472 -22.752 38.24 -16.608 39.776C-10.464 41.312 -5.088 43.52 -0.479994 46.4L-7.68 64.112C-16.992 58.832 -26.304 56.192 -35.616 56.192C-42.144 56.192 -46.992 57.248 -50.16 59.36C-53.232 61.472 -54.768 64.256 -54.768 67.712C-54.768 71.168 -52.992 73.76 -49.44 75.488C-45.792 77.12 -40.272 78.752 -32.88 80.384C-25.2 82.208 -18.912 84.032 -14.016 85.856C-9.12 87.68 -4.944 90.56 -1.488 94.496C2.064 98.432 3.84 103.76 3.84 110.48C3.84 116.24 2.208 121.52 -1.05599 126.32C-4.22399 131.024 -9.024 134.768 -15.456 137.552C-21.888 140.336 -29.712 141.728 -38.928 141.728ZM93.3641 118.4H46.5641L37.6361 140H13.7321L58.6601 39.2H81.7001L126.772 140H102.292L93.3641 118.4ZM86.0201 100.688L70.0361 62.096L54.0521 100.688H86.0201ZM144.43 39.2H167.758V120.992H218.302V140H144.43V39.2ZM316.584 121.28V140H238.536V39.2H314.712V57.92H261.72V79.808H308.52V97.952H261.72V121.28H316.584ZM423.447 141.728C415.479 141.728 407.751 140.672 400.263 138.56C392.871 136.352 386.919 133.52 382.407 130.064L390.327 112.496C394.647 115.664 399.783 118.208 405.735 120.128C411.687 122.048 417.639 123.008 423.591 123.008C430.215 123.008 435.111 122.048 438.279 120.128C441.447 118.112 443.031 115.472 443.031 112.208C443.031 109.808 442.071 107.84 440.151 106.304C438.327 104.672 435.927 103.376 432.951 102.416C430.071 101.456 426.135 100.4 421.143 99.248C413.463 97.424 407.175 95.6 402.279 93.776C397.383 91.952 393.159 89.024 389.607 84.992C386.151 80.96 384.423 75.584 384.423 68.864C384.423 63.008 386.007 57.728 389.175 53.024C392.343 48.224 397.095 44.432 403.431 41.648C409.863 38.864 417.687 37.472 426.903 37.472C433.335 37.472 439.623 38.24 445.767 39.776C451.911 41.312 457.287 43.52 461.895 46.4L454.695 64.112C445.383 58.832 436.071 56.192 426.759 56.192C420.231 56.192 415.383 57.248 412.215 59.36C409.143 61.472 407.607 64.256 407.607 67.712C407.607 71.168 409.383 73.76 412.935 75.488C416.583 77.12 422.103 78.752 429.495 80.384C437.175 82.208 443.463 84.032 448.359 85.856C453.255 87.68 457.431 90.56 460.887 94.496C464.439 98.432 466.215 103.76 466.215 110.48C466.215 116.24 464.583 121.52 461.319 126.32C458.151 131.024 453.351 134.768 446.919 137.552C440.487 140.336 432.663 141.728 423.447 141.728ZM555.739 118.4H508.939L500.011 140H476.107L521.035 39.2H544.075L589.147 140H564.667L555.739 118.4ZM548.395 100.688L532.411 62.096L516.427 100.688H548.395ZM606.805 39.2H630.133V120.992H680.677V140H606.805V39.2ZM778.959 121.28V140H700.911V39.2H777.087V57.92H724.095V79.808H770.895V97.952H724.095V121.28H778.959ZM885.822 141.728C877.854 141.728 870.126 140.672 862.638 138.56C855.246 136.352 849.294 133.52 844.782 130.064L852.702 112.496C857.022 115.664 862.158 118.208 868.11 120.128C874.062 122.048 880.014 123.008 885.966 123.008C892.59 123.008 897.486 122.048 900.654 120.128C903.822 118.112 905.406 115.472 905.406 112.208C905.406 109.808 904.446 107.84 902.526 106.304C900.702 104.672 898.302 103.376 895.326 102.416C892.446 101.456 888.51 100.4 883.518 99.248C875.838 97.424 869.55 95.6 864.654 93.776C859.758 91.952 855.534 89.024 851.982 84.992C848.526 80.96 846.798 75.584 846.798 68.864C846.798 63.008 848.382 57.728 851.55 53.024C854.718 48.224 859.47 44.432 865.806 41.648C872.238 38.864 880.062 37.472 889.278 37.472C895.71 37.472 901.998 38.24 908.142 39.776C914.286 41.312 919.662 43.52 924.27 46.4L917.07 64.112C907.758 58.832 898.446 56.192 889.134 56.192C882.606 56.192 877.758 57.248 874.59 59.36C871.518 61.472 869.982 64.256 869.982 67.712C869.982 71.168 871.758 73.76 875.31 75.488C878.958 77.12 884.478 78.752 891.87 80.384C899.55 82.208 905.838 84.032 910.734 85.856C915.63 87.68 919.806 90.56 923.262 94.496C926.814 98.432 928.59 103.76 928.59 110.48C928.59 116.24 926.958 121.52 923.694 126.32C920.526 131.024 915.726 134.768 909.294 137.552C902.862 140.336 895.038 141.728 885.822 141.728ZM1018.11 118.4H971.314L962.386 140H938.482L983.41 39.2H1006.45L1051.52 140H1027.04L1018.11 118.4ZM1010.77 100.688L994.786 62.096L978.802 100.688H1010.77ZM1069.18 39.2H1092.51V120.992H1143.05V140H1069.18V39.2ZM1241.33 121.28V140H1163.29V39.2H1239.46V57.92H1186.47V79.808H1233.27V97.952H1186.47V121.28H1241.33ZM1348.2 141.728C1340.23 141.728 1332.5 140.672 1325.01 138.56C1317.62 136.352 1311.67 133.52 1307.16 130.064L1315.08 112.496C1319.4 115.664 1324.53 118.208 1330.49 120.128C1336.44 122.048 1342.39 123.008 1348.34 123.008C1354.97 123.008 1359.86 122.048 1363.03 120.128C1366.2 118.112 1367.78 115.472 1367.78 112.208C1367.78 109.808 1366.82 107.84 1364.9 106.304C1363.08 104.672 1360.68 103.376 1357.7 102.416C1354.82 101.456 1350.89 100.4 1345.89 99.248C1338.21 97.424 1331.93 95.6 1327.03 93.776C1322.13 91.952 1317.91 89.024 1314.36 84.992C1310.9 80.96 1309.17 75.584 1309.17 68.864C1309.17 63.008 1310.76 57.728 1313.93 53.024C1317.09 48.224 1321.85 44.432 1328.18 41.648C1334.61 38.864 1342.44 37.472 1351.65 37.472C1358.09 37.472 1364.37 38.24 1370.52 39.776C1376.66 41.312 1382.04 43.52 1386.65 46.4L1379.45 64.112C1370.13 58.832 1360.82 56.192 1351.51 56.192C1344.98 56.192 1340.13 57.248 1336.97 59.36C1333.89 61.472 1332.36 64.256 1332.36 67.712C1332.36 71.168 1334.13 73.76 1337.69 75.488C1341.33 77.12 1346.85 78.752 1354.25 80.384C1361.93 82.208 1368.21 84.032 1373.11 85.856C1378.01 87.68 1382.18 90.56 1385.64 94.496C1389.19 98.432 1390.97 103.76 1390.97 110.48C1390.97 116.24 1389.33 121.52 1386.07 126.32C1382.9 131.024 1378.1 134.768 1371.67 137.552C1365.24 140.336 1357.41 141.728 1348.2 141.728ZM1480.49 118.4H1433.69L1424.76 140H1400.86L1445.79 39.2H1468.83L1513.9 140H1489.42L1480.49 118.4ZM1473.15 100.688L1457.16 62.096L1441.18 100.688H1473.15ZM1531.56 39.2H1554.88V120.992H1605.43V140H1531.56V39.2ZM1703.71 121.28V140H1625.66V39.2H1701.84V57.92H1648.85V79.808H1695.65V97.952H1648.85V121.28H1703.71ZM1810.57 141.728C1802.6 141.728 1794.88 140.672 1787.39 138.56C1780 136.352 1774.04 133.52 1769.53 130.064L1777.45 112.496C1781.77 115.664 1786.91 118.208 1792.86 120.128C1798.81 122.048 1804.76 123.008 1810.72 123.008C1817.34 123.008 1822.24 122.048 1825.4 120.128C1828.57 118.112 1830.16 115.472 1830.16 112.208C1830.16 109.808 1829.2 107.84 1827.28 106.304C1825.45 104.672 1823.05 103.376 1820.08 102.416C1817.2 101.456 1813.26 100.4 1808.27 99.248C1800.59 97.424 1794.3 95.6 1789.4 93.776C1784.51 91.952 1780.28 89.024 1776.73 84.992C1773.28 80.96 1771.55 75.584 1771.55 68.864C1771.55 63.008 1773.13 57.728 1776.3 53.024C1779.47 48.224 1784.22 44.432 1790.56 41.648C1796.99 38.864 1804.81 37.472 1814.03 37.472C1820.46 37.472 1826.75 38.24 1832.89 39.776C1839.04 41.312 1844.41 43.52 1849.02 46.4L1841.82 64.112C1832.51 58.832 1823.2 56.192 1813.88 56.192C1807.36 56.192 1802.51 57.248 1799.34 59.36C1796.27 61.472 1794.73 64.256 1794.73 67.712C1794.73 71.168 1796.51 73.76 1800.06 75.488C1803.71 77.12 1809.23 78.752 1816.62 80.384C1824.3 82.208 1830.59 84.032 1835.48 85.856C1840.38 87.68 1844.56 90.56 1848.01 94.496C1851.56 98.432 1853.34 103.76 1853.34 110.48C1853.34 116.24 1851.71 121.52 1848.44 126.32C1845.28 131.024 1840.48 134.768 1834.04 137.552C1827.61 140.336 1819.79 141.728 1810.57 141.728ZM1942.86 118.4H1896.06L1887.14 140H1863.23L1908.16 39.2H1931.2L1976.27 140H1951.79L1942.86 118.4ZM1935.52 100.688L1919.54 62.096L1903.55 100.688H1935.52Z" fill="#FFFCF8"/>
<path d="M45.072 327.728C37.104 327.728 29.376 326.672 21.888 324.56C14.496 322.352 8.544 319.52 4.032 316.064L11.952 298.496C16.272 301.664 21.408 304.208 27.36 306.128C33.312 308.048 39.264 309.008 45.216 309.008C51.84 309.008 56.736 308.048 59.904 306.128C63.072 304.112 64.656 301.472 64.656 298.208C64.656 295.808 63.696 293.84 61.776 292.304C59.952 290.672 57.552 289.376 54.576 288.416C51.696 287.456 47.76 286.4 42.768 285.248C35.088 283.424 28.8 281.6 23.904 279.776C19.008 277.952 14.784 275.024 11.232 270.992C7.776 266.96 6.048 261.584 6.048 254.864C6.048 249.008 7.632 243.728 10.8 239.024C13.968 234.224 18.72 230.432 25.056 227.648C31.488 224.864 39.312 223.472 48.528 223.472C54.96 223.472 61.248 224.24 67.392 225.776C73.536 227.312 78.912 229.52 83.52 232.4L76.32 250.112C67.008 244.832 57.696 242.192 48.384 242.192C41.856 242.192 37.008 243.248 33.84 245.36C30.768 247.472 29.232 250.256 29.232 253.712C29.232 257.168 31.008 259.76 34.56 261.488C38.208 263.12 43.728 264.752 51.12 266.384C58.8 268.208 65.088 270.032 69.984 271.856C74.88 273.68 79.056 276.56 82.512 280.496C86.064 284.432 87.84 289.76 87.84 296.48C87.84 302.24 86.208 307.52 82.944 312.32C79.776 317.024 74.976 320.768 68.544 323.552C62.112 326.336 54.288 327.728 45.072 327.728ZM177.364 304.4H130.564L121.636 326H97.7321L142.66 225.2H165.7L210.772 326H186.292L177.364 304.4ZM170.02 286.688L154.036 248.096L138.052 286.688H170.02ZM228.43 225.2H251.758V306.992H302.302V326H228.43V225.2ZM400.584 307.28V326H322.536V225.2H398.712V243.92H345.72V265.808H392.52V283.952H345.72V307.28H400.584ZM507.447 327.728C499.479 327.728 491.751 326.672 484.263 324.56C476.871 322.352 470.919 319.52 466.407 316.064L474.327 298.496C478.647 301.664 483.783 304.208 489.735 306.128C495.687 308.048 501.639 309.008 507.591 309.008C514.215 309.008 519.111 308.048 522.279 306.128C525.447 304.112 527.031 301.472 527.031 298.208C527.031 295.808 526.071 293.84 524.151 292.304C522.327 290.672 519.927 289.376 516.951 288.416C514.071 287.456 510.135 286.4 505.143 285.248C497.463 283.424 491.175 281.6 486.279 279.776C481.383 277.952 477.159 275.024 473.607 270.992C470.151 266.96 468.423 261.584 468.423 254.864C468.423 249.008 470.007 243.728 473.175 239.024C476.343 234.224 481.095 230.432 487.431 227.648C493.863 224.864 501.687 223.472 510.903 223.472C517.335 223.472 523.623 224.24 529.767 225.776C535.911 227.312 541.287 229.52 545.895 232.4L538.695 250.112C529.383 244.832 520.071 242.192 510.759 242.192C504.231 242.192 499.383 243.248 496.215 245.36C493.143 247.472 491.607 250.256 491.607 253.712C491.607 257.168 493.383 259.76 496.935 261.488C500.583 263.12 506.103 264.752 513.495 266.384C521.175 268.208 527.463 270.032 532.359 271.856C537.255 273.68 541.431 276.56 544.887 280.496C548.439 284.432 550.215 289.76 550.215 296.48C550.215 302.24 548.583 307.52 545.319 312.32C542.151 317.024 537.351 320.768 530.919 323.552C524.487 326.336 516.663 327.728 507.447 327.728ZM639.739 304.4H592.939L584.011 326H560.107L605.035 225.2H628.075L673.147 326H648.667L639.739 304.4ZM632.395 286.688L616.411 248.096L600.427 286.688H632.395ZM690.805 225.2H714.133V306.992H764.677V326H690.805V225.2ZM862.959 307.28V326H784.911V225.2H861.087V243.92H808.095V265.808H854.895V283.952H808.095V307.28H862.959ZM969.822 327.728C961.854 327.728 954.126 326.672 946.638 324.56C939.246 322.352 933.294 319.52 928.782 316.064L936.702 298.496C941.022 301.664 946.158 304.208 952.11 306.128C958.062 308.048 964.014 309.008 969.966 309.008C976.59 309.008 981.486 308.048 984.654 306.128C987.822 304.112 989.406 301.472 989.406 298.208C989.406 295.808 988.446 293.84 986.526 292.304C984.702 290.672 982.302 289.376 979.326 288.416C976.446 287.456 972.51 286.4 967.518 285.248C959.838 283.424 953.55 281.6 948.654 279.776C943.758 277.952 939.534 275.024 935.982 270.992C932.526 266.96 930.798 261.584 930.798 254.864C930.798 249.008 932.382 243.728 935.55 239.024C938.718 234.224 943.47 230.432 949.806 227.648C956.238 224.864 964.062 223.472 973.278 223.472C979.71 223.472 985.998 224.24 992.142 225.776C998.286 227.312 1003.66 229.52 1008.27 232.4L1001.07 250.112C991.758 244.832 982.446 242.192 973.134 242.192C966.606 242.192 961.758 243.248 958.59 245.36C955.518 247.472 953.982 250.256 953.982 253.712C953.982 257.168 955.758 259.76 959.31 261.488C962.958 263.12 968.478 264.752 975.87 266.384C983.55 268.208 989.838 270.032 994.734 271.856C999.63 273.68 1003.81 276.56 1007.26 280.496C1010.81 284.432 1012.59 289.76 1012.59 296.48C1012.59 302.24 1010.96 307.52 1007.69 312.32C1004.53 317.024 999.726 320.768 993.294 323.552C986.862 326.336 979.038 327.728 969.822 327.728ZM1102.11 304.4H1055.31L1046.39 326H1022.48L1067.41 225.2H1090.45L1135.52 326H1111.04L1102.11 304.4ZM1094.77 286.688L1078.79 248.096L1062.8 286.688H1094.77ZM1153.18 225.2H1176.51V306.992H1227.05V326H1153.18V225.2ZM1325.33 307.28V326H1247.29V225.2H1323.46V243.92H1270.47V265.808H1317.27V283.952H1270.47V307.28H1325.33ZM1432.2 327.728C1424.23 327.728 1416.5 326.672 1409.01 324.56C1401.62 322.352 1395.67 319.52 1391.16 316.064L1399.08 298.496C1403.4 301.664 1408.53 304.208 1414.49 306.128C1420.44 308.048 1426.39 309.008 1432.34 309.008C1438.97 309.008 1443.86 308.048 1447.03 306.128C1450.2 304.112 1451.78 301.472 1451.78 298.208C1451.78 295.808 1450.82 293.84 1448.9 292.304C1447.08 290.672 1444.68 289.376 1441.7 288.416C1438.82 287.456 1434.89 286.4 1429.89 285.248C1422.21 283.424 1415.93 281.6 1411.03 279.776C1406.13 277.952 1401.91 275.024 1398.36 270.992C1394.9 266.96 1393.17 261.584 1393.17 254.864C1393.17 249.008 1394.76 243.728 1397.93 239.024C1401.09 234.224 1405.85 230.432 1412.18 227.648C1418.61 224.864 1426.44 223.472 1435.65 223.472C1442.09 223.472 1448.37 224.24 1454.52 225.776C1460.66 227.312 1466.04 229.52 1470.65 232.4L1463.45 250.112C1454.13 244.832 1444.82 242.192 1435.51 242.192C1428.98 242.192 1424.13 243.248 1420.97 245.36C1417.89 247.472 1416.36 250.256 1416.36 253.712C1416.36 257.168 1418.13 259.76 1421.69 261.488C1425.33 263.12 1430.85 264.752 1438.25 266.384C1445.93 268.208 1452.21 270.032 1457.11 271.856C1462.01 273.68 1466.18 276.56 1469.64 280.496C1473.19 284.432 1474.97 289.76 1474.97 296.48C1474.97 302.24 1473.33 307.52 1470.07 312.32C1466.9 317.024 1462.1 320.768 1455.67 323.552C1449.24 326.336 1441.41 327.728 1432.2 327.728ZM1564.49 304.4H1517.69L1508.76 326H1484.86L1529.79 225.2H1552.83L1597.9 326H1573.42L1564.49 304.4ZM1557.15 286.688L1541.16 248.096L1525.18 286.688H1557.15ZM1615.56 225.2H1638.88V306.992H1689.43V326H1615.56V225.2ZM1787.71 307.28V326H1709.66V225.2H1785.84V243.92H1732.85V265.808H1779.65V283.952H1732.85V307.28H1787.71ZM1894.57 327.728C1886.6 327.728 1878.88 326.672 1871.39 324.56C1864 322.352 1858.04 319.52 1853.53 316.064L1861.45 298.496C1865.77 301.664 1870.91 304.208 1876.86 306.128C1882.81 308.048 1888.76 309.008 1894.72 309.008C1901.34 309.008 1906.24 308.048 1909.4 306.128C1912.57 304.112 1914.16 301.472 1914.16 298.208C1914.16 295.808 1913.2 293.84 1911.28 292.304C1909.45 290.672 1907.05 289.376 1904.08 288.416C1901.2 287.456 1897.26 286.4 1892.27 285.248C1884.59 283.424 1878.3 281.6 1873.4 279.776C1868.51 277.952 1864.28 275.024 1860.73 270.992C1857.28 266.96 1855.55 261.584 1855.55 254.864C1855.55 249.008 1857.13 243.728 1860.3 239.024C1863.47 234.224 1868.22 230.432 1874.56 227.648C1880.99 224.864 1888.81 223.472 1898.03 223.472C1904.46 223.472 1910.75 224.24 1916.89 225.776C1923.04 227.312 1928.41 229.52 1933.02 232.4L1925.82 250.112C1916.51 244.832 1907.2 242.192 1897.88 242.192C1891.36 242.192 1886.51 243.248 1883.34 245.36C1880.27 247.472 1878.73 250.256 1878.73 253.712C1878.73 257.168 1880.51 259.76 1884.06 261.488C1887.71 263.12 1893.23 264.752 1900.62 266.384C1908.3 268.208 1914.59 270.032 1919.48 271.856C1924.38 273.68 1928.56 276.56 1932.01 280.496C1935.56 284.432 1937.34 289.76 1937.34 296.48C1937.34 302.24 1935.71 307.52 1932.44 312.32C1929.28 317.024 1924.48 320.768 1918.04 323.552C1911.61 326.336 1903.79 327.728 1894.57 327.728ZM2026.86 304.4H1980.06L1971.14 326H1947.23L1992.16 225.2H2015.2L2060.27 326H2035.79L2026.86 304.4ZM2019.52 286.688L2003.54 248.096L1987.55 286.688H2019.52Z" fill="#FFFCF8"/>
<path d="M-89.928 548.728C-97.896 548.728 -105.624 547.672 -113.112 545.56C-120.504 543.352 -126.456 540.52 -130.968 537.064L-123.048 519.496C-118.728 522.664 -113.592 525.208 -107.64 527.128C-101.688 529.048 -95.736 530.008 -89.784 530.008C-83.16 530.008 -78.264 529.048 -75.096 527.128C-71.928 525.112 -70.344 522.472 -70.344 519.208C-70.344 516.808 -71.304 514.84 -73.224 513.304C-75.048 511.672 -77.448 510.376 -80.424 509.416C-83.304 508.456 -87.24 507.4 -92.232 506.248C-99.912 504.424 -106.2 502.6 -111.096 500.776C-115.992 498.952 -120.216 496.024 -123.768 491.992C-127.224 487.96 -128.952 482.584 -128.952 475.864C-128.952 470.008 -127.368 464.728 -124.2 460.024C-121.032 455.224 -116.28 451.432 -109.944 448.648C-103.512 445.864 -95.688 444.472 -86.472 444.472C-80.04 444.472 -73.752 445.24 -67.608 446.776C-61.464 448.312 -56.088 450.52 -51.48 453.4L-58.68 471.112C-67.992 465.832 -77.304 463.192 -86.616 463.192C-93.144 463.192 -97.992 464.248 -101.16 466.36C-104.232 468.472 -105.768 471.256 -105.768 474.712C-105.768 478.168 -103.992 480.76 -100.44 482.488C-96.792 484.12 -91.272 485.752 -83.88 487.384C-76.2 489.208 -69.912 491.032 -65.016 492.856C-60.12 494.68 -55.944 497.56 -52.488 501.496C-48.936 505.432 -47.16 510.76 -47.16 517.48C-47.16 523.24 -48.792 528.52 -52.056 533.32C-55.224 538.024 -60.024 541.768 -66.456 544.552C-72.888 547.336 -80.712 548.728 -89.928 548.728ZM42.3641 525.4H-4.43588L-13.3639 547H-37.2679L7.66012 446.2H30.7001L75.7721 547H51.2921L42.3641 525.4ZM35.0201 507.688L19.0361 469.096L3.05213 507.688H35.0201ZM93.4301 446.2H116.758V527.992H167.302V547H93.4301V446.2ZM265.584 528.28V547H187.536V446.2H263.712V464.92H210.72V486.808H257.52V504.952H210.72V528.28H265.584ZM372.447 548.728C364.479 548.728 356.751 547.672 349.263 545.56C341.871 543.352 335.919 540.52 331.407 537.064L339.327 519.496C343.647 522.664 348.783 525.208 354.735 527.128C360.687 529.048 366.639 530.008 372.591 530.008C379.215 530.008 384.111 529.048 387.279 527.128C390.447 525.112 392.031 522.472 392.031 519.208C392.031 516.808 391.071 514.84 389.151 513.304C387.327 511.672 384.927 510.376 381.951 509.416C379.071 508.456 375.135 507.4 370.143 506.248C362.463 504.424 356.175 502.6 351.279 500.776C346.383 498.952 342.159 496.024 338.607 491.992C335.151 487.96 333.423 482.584 333.423 475.864C333.423 470.008 335.007 464.728 338.175 460.024C341.343 455.224 346.095 451.432 352.431 448.648C358.863 445.864 366.687 444.472 375.903 444.472C382.335 444.472 388.623 445.24 394.767 446.776C400.911 448.312 406.287 450.52 410.895 453.4L403.695 471.112C394.383 465.832 385.071 463.192 375.759 463.192C369.231 463.192 364.383 464.248 361.215 466.36C358.143 468.472 356.607 471.256 356.607 474.712C356.607 478.168 358.383 480.76 361.935 482.488C365.583 484.12 371.103 485.752 378.495 487.384C386.175 489.208 392.463 491.032 397.359 492.856C402.255 494.68 406.431 497.56 409.887 501.496C413.439 505.432 415.215 510.76 415.215 517.48C415.215 523.24 413.583 528.52 410.319 533.32C407.151 538.024 402.351 541.768 395.919 544.552C389.487 547.336 381.663 548.728 372.447 548.728ZM504.739 525.4H457.939L449.011 547H425.107L470.035 446.2H493.075L538.147 547H513.667L504.739 525.4ZM497.395 507.688L481.411 469.096L465.427 507.688H497.395ZM555.805 446.2H579.133V527.992H629.677V547H555.805V446.2ZM727.959 528.28V547H649.911V446.2H726.087V464.92H673.095V486.808H719.895V504.952H673.095V528.28H727.959ZM834.822 548.728C826.854 548.728 819.126 547.672 811.638 545.56C804.246 543.352 798.294 540.52 793.782 537.064L801.702 519.496C806.022 522.664 811.158 525.208 817.11 527.128C823.062 529.048 829.014 530.008 834.966 530.008C841.59 530.008 846.486 529.048 849.654 527.128C852.822 525.112 854.406 522.472 854.406 519.208C854.406 516.808 853.446 514.84 851.526 513.304C849.702 511.672 847.302 510.376 844.326 509.416C841.446 508.456 837.51 507.4 832.518 506.248C824.838 504.424 818.55 502.6 813.654 500.776C808.758 498.952 804.534 496.024 800.982 491.992C797.526 487.96 795.798 482.584 795.798 475.864C795.798 470.008 797.382 464.728 800.55 460.024C803.718 455.224 808.47 451.432 814.806 448.648C821.238 445.864 829.062 444.472 838.278 444.472C844.71 444.472 850.998 445.24 857.142 446.776C863.286 448.312 868.662 450.52 873.27 453.4L866.07 471.112C856.758 465.832 847.446 463.192 838.134 463.192C831.606 463.192 826.758 464.248 823.59 466.36C820.518 468.472 818.982 471.256 818.982 474.712C818.982 478.168 820.758 480.76 824.31 482.488C827.958 484.12 833.478 485.752 840.87 487.384C848.55 489.208 854.838 491.032 859.734 492.856C864.63 494.68 868.806 497.56 872.262 501.496C875.814 505.432 877.59 510.76 877.59 517.48C877.59 523.24 875.958 528.52 872.694 533.32C869.526 538.024 864.726 541.768 858.294 544.552C851.862 547.336 844.038 548.728 834.822 548.728ZM967.114 525.4H920.314L911.386 547H887.482L932.41 446.2H955.45L1000.52 547H976.042L967.114 525.4ZM959.77 507.688L943.786 469.096L927.802 507.688H959.77ZM1018.18 446.2H1041.51V527.992H1092.05V547H1018.18V446.2ZM1190.33 528.28V547H1112.29V446.2H1188.46V464.92H1135.47V486.808H1182.27V504.952H1135.47V528.28H1190.33ZM1297.2 548.728C1289.23 548.728 1281.5 547.672 1274.01 545.56C1266.62 543.352 1260.67 540.52 1256.16 537.064L1264.08 519.496C1268.4 522.664 1273.53 525.208 1279.49 527.128C1285.44 529.048 1291.39 530.008 1297.34 530.008C1303.97 530.008 1308.86 529.048 1312.03 527.128C1315.2 525.112 1316.78 522.472 1316.78 519.208C1316.78 516.808 1315.82 514.84 1313.9 513.304C1312.08 511.672 1309.68 510.376 1306.7 509.416C1303.82 508.456 1299.89 507.4 1294.89 506.248C1287.21 504.424 1280.93 502.6 1276.03 500.776C1271.13 498.952 1266.91 496.024 1263.36 491.992C1259.9 487.96 1258.17 482.584 1258.17 475.864C1258.17 470.008 1259.76 464.728 1262.93 460.024C1266.09 455.224 1270.85 451.432 1277.18 448.648C1283.61 445.864 1291.44 444.472 1300.65 444.472C1307.09 444.472 1313.37 445.24 1319.52 446.776C1325.66 448.312 1331.04 450.52 1335.65 453.4L1328.45 471.112C1319.13 465.832 1309.82 463.192 1300.51 463.192C1293.98 463.192 1289.13 464.248 1285.97 466.36C1282.89 468.472 1281.36 471.256 1281.36 474.712C1281.36 478.168 1283.13 480.76 1286.69 482.488C1290.33 484.12 1295.85 485.752 1303.25 487.384C1310.93 489.208 1317.21 491.032 1322.11 492.856C1327.01 494.68 1331.18 497.56 1334.64 501.496C1338.19 505.432 1339.97 510.76 1339.97 517.48C1339.97 523.24 1338.33 528.52 1335.07 533.32C1331.9 538.024 1327.1 541.768 1320.67 544.552C1314.24 547.336 1306.41 548.728 1297.2 548.728ZM1429.49 525.4H1382.69L1373.76 547H1349.86L1394.79 446.2H1417.83L1462.9 547H1438.42L1429.49 525.4ZM1422.15 507.688L1406.16 469.096L1390.18 507.688H1422.15ZM1480.56 446.2H1503.88V527.992H1554.43V547H1480.56V446.2ZM1652.71 528.28V547H1574.66V446.2H1650.84V464.92H1597.85V486.808H1644.65V504.952H1597.85V528.28H1652.71ZM1759.57 548.728C1751.6 548.728 1743.88 547.672 1736.39 545.56C1729 543.352 1723.04 540.52 1718.53 537.064L1726.45 519.496C1730.77 522.664 1735.91 525.208 1741.86 527.128C1747.81 529.048 1753.76 530.008 1759.72 530.008C1766.34 530.008 1771.24 529.048 1774.4 527.128C1777.57 525.112 1779.16 522.472 1779.16 519.208C1779.16 516.808 1778.2 514.84 1776.28 513.304C1774.45 511.672 1772.05 510.376 1769.08 509.416C1766.2 508.456 1762.26 507.4 1757.27 506.248C1749.59 504.424 1743.3 502.6 1738.4 500.776C1733.51 498.952 1729.28 496.024 1725.73 491.992C1722.28 487.96 1720.55 482.584 1720.55 475.864C1720.55 470.008 1722.13 464.728 1725.3 460.024C1728.47 455.224 1733.22 451.432 1739.56 448.648C1745.99 445.864 1753.81 444.472 1763.03 444.472C1769.46 444.472 1775.75 445.24 1781.89 446.776C1788.04 448.312 1793.41 450.52 1798.02 453.4L1790.82 471.112C1781.51 465.832 1772.2 463.192 1762.88 463.192C1756.36 463.192 1751.51 464.248 1748.34 466.36C1745.27 468.472 1743.73 471.256 1743.73 474.712C1743.73 478.168 1745.51 480.76 1749.06 482.488C1752.71 484.12 1758.23 485.752 1765.62 487.384C1773.3 489.208 1779.59 491.032 1784.48 492.856C1789.38 494.68 1793.56 497.56 1797.01 501.496C1800.56 505.432 1802.34 510.76 1802.34 517.48C1802.34 523.24 1800.71 528.52 1797.44 533.32C1794.28 538.024 1789.48 541.768 1783.04 544.552C1776.61 547.336 1768.79 548.728 1759.57 548.728ZM1891.86 525.4H1845.06L1836.14 547H1812.23L1857.16 446.2H1880.2L1925.27 547H1900.79L1891.86 525.4ZM1884.52 507.688L1868.54 469.096L1852.55 507.688H1884.52Z" fill="#FFFCF8"/>
</svg>
